<svg xmlns="http://www.w3.org/2000/svg" fill="#fff" id="Capa_1" height="512" viewBox="0 0 512.002 512.002" width="512"><g><path d="m207.904 152.307c-4.142 0-7.5 3.357-7.5 7.5v8.016c0 4.143 3.358 7.5 7.5 7.5s7.5-3.357 7.5-7.5v-8.016c0-4.143-3.358-7.5-7.5-7.5z"></path><path d="m304.098 152.307c-4.142 0-7.5 3.357-7.5 7.5v8.016c0 4.143 3.358 7.5 7.5 7.5s7.5-3.357 7.5-7.5v-8.016c0-4.143-3.358-7.5-7.5-7.5z"></path><path d="m230.223 222.079c-2.068 3.589-.836 8.175 2.753 10.243 5.245 3.022 13.637 4.756 23.026 4.756 9.388 0 17.781-1.733 23.025-4.756 3.588-2.068 4.821-6.654 2.753-10.243s-6.654-4.821-10.243-2.753c-2.377 1.37-8.103 2.752-15.535 2.752-7.433 0-13.159-1.382-15.536-2.752-3.589-2.068-8.175-.837-10.243 2.753z"></path><path d="m199.888 143.258h16.032c4.142 0 7.5-3.357 7.5-7.5 0-4.142-3.358-7.5-7.5-7.5h-16.032c-4.142 0-7.5 3.358-7.5 7.5s3.358 7.5 7.5 7.5z"></path><path d="m296.082 143.258h16.032c4.142 0 7.5-3.357 7.5-7.5 0-4.142-3.358-7.5-7.5-7.5h-16.032c-4.142 0-7.5 3.358-7.5 7.5s3.358 7.5 7.5 7.5z"></path><path d="m410.97 331.451-41.878-12.876c-.01-2.165-.312-4.335-.926-6.445-1.827-6.273-6.226-11.546-12.07-14.468l-28.466-14.233v-13.929c20.728-17.367 35.088-42.101 39.003-70.129h4.458c14.618 0 27.155-10.861 28.544-24.728.778-7.771-1.764-15.53-6.974-21.288-2.521-2.787-5.568-4.992-8.917-6.533v-51.144c-.001-52.757-42.922-95.678-95.679-95.678h-64.129c-52.757 0-95.677 42.921-95.677 95.678v51.48c-8.63 4.115-14.929 12.266-15.89 21.858-.779 7.771 1.762 15.53 6.972 21.288 5.213 5.763 12.659 9.067 20.426 9.067h5.598c3.913 28.038 18.273 52.775 39.006 70.142v13.917l-28.466 14.233c-5.844 2.922-10.243 8.195-12.07 14.468-.614 2.109-.915 4.28-.926 6.445l-41.878 12.875c-26.867 8.26-44.918 32.696-44.918 60.804v112.245c0 4.142 3.358 7.5 7.5 7.5s7.5-3.358 7.5-7.5v-112.245c0-21.48 13.795-40.154 34.327-46.466l42.039-12.925 10.901 18.167-7.651 7.651c-9.618 9.617-11.993 24.252-5.91 36.417l56.377 112.755c1.314 2.628 3.962 4.148 6.714 4.148 1.127 0 2.271-.255 3.348-.794 3.705-1.853 5.207-6.357 3.354-10.062l-56.377-112.755c-3.19-6.381-1.945-14.057 3.1-19.102l11.792-11.792c2.434-2.434 2.898-6.211 1.128-9.162l-15.141-25.235c-1.237-2.061-1.548-4.467-.875-6.775.672-2.308 2.226-4.171 4.376-5.246l24.609-12.304 5.474 18.475c1.177 3.972 5.348 6.238 9.322 5.061 3.971-1.177 6.237-5.35 5.06-9.321l-.935-3.156 36.783 19.794-24.547 21.502-2.56-8.64c-1.177-3.971-5.347-6.237-9.322-5.061-3.971 1.177-6.237 5.35-5.06 9.321l47.372 159.881c.943 3.185 3.87 5.369 7.191 5.369s6.248-2.185 7.191-5.369l61.587-207.856 24.609 12.304c2.15 1.075 3.704 2.938 4.376 5.246s.361 4.714-.875 6.775l-15.141 25.235c-1.771 2.951-1.306 6.729 1.128 9.162l11.792 11.792c5.045 5.044 6.291 12.721 3.1 19.102l-56.379 112.755c-1.853 3.705-.351 8.209 3.354 10.062 1.077.539 2.221.794 3.348.794 2.751 0 5.4-1.52 6.714-4.148l56.377-112.754c6.083-12.165 3.708-26.8-5.91-36.417l-7.651-7.651 10.901-18.168 42.039 12.925c20.532 6.312 34.327 24.986 34.327 46.466v112.245c0 4.142 3.358 7.5 7.5 7.5s7.5-3.358 7.5-7.5v-112.245c-.001-28.109-18.052-52.544-44.919-60.804zm-117.348 19.678-24.547-21.502 36.783-19.794zm-13.482 45.502-8.041-35.312c1.668-1.568 3.108-3.375 4.264-5.367l12.568 11.009zm-32.559-51.139 8.42-7.376 8.42 7.376c-.635 4.081-4.164 7.218-8.42 7.218s-7.785-3.137-8.42-7.218zm-88.289-161.638c0-4.142-3.358-7.5-7.5-7.5s-7.5 3.358-7.5 7.5v.517h-4.524c-3.537 0-6.928-1.506-9.303-4.131-2.407-2.66-3.532-6.115-3.17-9.729.631-6.292 6.613-11.222 13.62-11.222h10.877c12.976 0 23.532-10.556 23.532-23.532v-40.08c0-13.545 11.02-24.565 24.564-24.565h72.145c4.142 0 7.5-3.358 7.5-7.5s-3.358-7.5-7.5-7.5h-72.145c-21.816 0-39.564 17.749-39.564 39.565v40.08c0 4.705-3.828 8.532-8.532 8.532h-8.532v-48.611c0-44.486 36.191-80.678 80.677-80.678h64.129c44.486 0 80.677 36.191 80.677 80.678v48.612h-8.532c-4.705 0-8.532-3.827-8.532-8.532v-40.08c0-21.816-17.749-39.565-39.564-39.565h-8.016c-4.142 0-7.5 3.358-7.5 7.5s3.358 7.5 7.5 7.5h8.016c13.545 0 24.564 11.02 24.564 24.565v40.08c0 12.976 10.557 23.532 23.532 23.532h12.025c3.537 0 6.927 1.506 9.302 4.13 2.407 2.66 3.533 6.115 3.171 9.729-.63 6.292-6.612 11.222-13.618 11.222h-3.383v-.439c0-4.141-3.356-7.499-7.497-7.5-.001 0-.002 0-.003 0-4.14 0-7.497 3.354-7.5 7.495-.039 53.286-43.421 96.638-96.706 96.638-53.326-.001-96.71-43.384-96.71-96.711zm40.08 105.293v-9.036c16.615 9.812 35.975 15.453 56.629 15.453 20.651 0 40.011-5.644 56.628-15.461v9.035l-56.629 30.489zm36.267 66.805c1.156 1.992 2.596 3.799 4.264 5.367l-8.042 35.312-8.791-29.67zm20.362 122.148-15.44-52.109 13.295-58.383c.707.064 1.422.103 2.145.103s1.438-.038 2.145-.103l13.295 58.382z"></path><path d="m216.821 210.275c1.048 3.143 3.974 5.13 7.114 5.13.786 0 1.586-.125 2.373-.387l24.048-8.016c3.93-1.31 6.053-5.557 4.744-9.487-1.311-3.93-5.558-6.053-9.487-4.744l-24.048 8.016c-3.93 1.311-6.053 5.559-4.744 9.488z"></path><path d="m261.646 207.002 24.048 8.016c.787.262 1.586.387 2.373.387 3.14 0 6.066-1.987 7.114-5.13 1.31-3.93-.814-8.177-4.744-9.487l-24.048-8.016c-3.929-1.309-8.177.814-9.487 4.744-1.31 3.929.814 8.176 4.744 9.486z"></path></g></svg>